<?xml version="1.0" encoding="UTF-8"?>
<svg xmlns="http://www.w3.org/2000/svg" width="32" height="29" version="1.1" viewBox="0 0 32 29">
  <!-- Generator: Adobe Illustrator 29.4.0, SVG Export Plug-In . SVG Version: 2.1.0 Build 152)  -->
  <defs>
    <style>
      .st0 {
        fill: #fff;
      }
    </style>
  </defs>
  <g id="Layer_6">
    <g>
      <rect x="14" y="18" width="1" height="1"/>
      <rect x="18" y="16" width="1" height="1"/>
      <rect x="22" y="14" width="1" height="1"/>
      <rect x="26" y="14" width="1" height="1"/>
      <rect x="22" y="16" width="1" height="1"/>
      <rect x="8" y="23" width="1" height="1"/>
      <rect x="6" y="22" width="1" height="1"/>
      <rect x="4" y="21" width="1" height="1"/>
      <rect x="20" y="19" width="1" height="1"/>
      <rect x="26" y="16" width="1" height="1"/>
      <rect x="13" y="28" width="2" height="1"/>
      <rect x="11" y="27" width="2" height="1"/>
      <rect x="9" y="26" width="2" height="1"/>
      <rect x="7" y="25" width="2" height="1"/>
      <rect x="5" y="24" width="2" height="1"/>
      <rect x="3" y="23" width="2" height="1"/>
      <rect x="25" y="20" width="2" height="1"/>
      <rect x="22" y="22" width="2" height="1"/>
      <rect x="10" y="24" width="1" height="1"/>
      <rect x="14" y="22" width="1" height="1"/>
      <polygon points="3 14 2 14 2 13 1 13 1 14 1 15 3 15 3 14"/>
      <rect x="24" y="13" width="1" height="1"/>
      <rect x="20" y="15" width="1" height="1"/>
      <rect x="16" y="17" width="1" height="1"/>
      <polygon points="3 19 3 18 2 18 2 17 1 17 1 18 1 19 1 20 2 20 2 19 3 19"/>
      <rect x="22" y="18" width="1" height="1"/>
      <rect x="12" y="19" width="1" height="1"/>
      <rect x="18" y="18" width="1" height="1"/>
      <rect x="20" y="17" width="1" height="1"/>
      <rect x="24" y="15" width="1" height="1"/>
      <rect x="26" y="12" width="1" height="1"/>
      <polygon points="20 24 18 24 18 25 18 26 19 26 19 25 21 25 21 24 22 24 22 23 20 23 20 24"/>
      <rect x="24" y="21" width="1" height="1"/>
      <rect x="27" y="19" width="1" height="1"/>
      <rect x="16" y="23" width="1" height="1"/>
      <rect x="18" y="20" width="1" height="1"/>
      <rect x="24" y="17" width="1" height="1"/>
      <rect x="28" y="15" width="1" height="1"/>
      <rect y="15" width="1" height="2"/>
      <polygon points="31 6 31 5 29 5 29 4 27 4 27 3 25 3 25 2 23 2 23 1 21 1 21 0 19 0 19 1 20 1 20 2 21 2 22 2 22 3 23 3 24 3 24 4 25 4 26 4 26 5 27 5 28 5 28 6 29 6 30 6 30 7 31 7 31 8 30 8 30 9 31 9 31 10 30 10 30 11 31 11 31 12 30 12 30 13 31 13 31 14 30 14 30 15 31 15 31 16 30 16 30 17 31 17 31 18 29 18 29 17 28 17 28 18 28 19 31 19 32 19 32 6 31 6"/>
      <rect x="15" y="27" width="1" height="1"/>
      <rect x="12" y="25" width="1" height="1"/>
      <rect y="10" width="1" height="3"/>
      <rect x="2" y="20" width="1" height="3"/>
      <rect x="22" y="20" width="1" height="1"/>
      <rect x="24" y="19" width="1" height="1"/>
      <rect x="26" y="18" width="1" height="1"/>
      <rect x="28" y="13" width="1" height="1"/>
      <rect x="14" y="20" width="1" height="1"/>
      <rect x="10" y="20" width="1" height="1"/>
      <rect x="16" y="19" width="1" height="1"/>
      <rect x="28" y="11" width="1" height="1"/>
      <polygon points="16 4 17 4 17 3 17 2 15 2 15 3 16 3 16 4"/>
      <polygon points="18 3 19 3 19 2 19 1 17 1 17 2 18 2 18 3"/>
      <rect x="8" y="21" width="1" height="1"/>
      <rect x="14" y="14" width="1" height="1"/>
      <rect x="18" y="12" width="1" height="1"/>
      <rect x="22" y="10" width="1" height="1"/>
      <rect x="6" y="18" width="1" height="1"/>
      <rect x="24" y="9" width="1" height="1"/>
      <rect x="20" y="11" width="1" height="1"/>
      <rect x="16" y="13" width="1" height="1"/>
      <rect x="12" y="15" width="1" height="1"/>
      <rect x="26" y="8" width="1" height="1"/>
      <rect x="10" y="16" width="1" height="1"/>
      <rect x="28" y="7" width="1" height="1"/>
      <rect x="8" y="17" width="1" height="1"/>
      <rect x="14" y="12" width="1" height="1"/>
      <rect x="18" y="10" width="1" height="1"/>
      <rect x="22" y="8" width="1" height="1"/>
      <rect x="6" y="16" width="1" height="1"/>
      <rect x="24" y="7" width="1" height="1"/>
      <rect x="20" y="9" width="1" height="1"/>
      <rect x="16" y="11" width="1" height="1"/>
      <rect x="12" y="13" width="1" height="1"/>
      <rect x="26" y="6" width="1" height="1"/>
      <rect x="10" y="14" width="1" height="1"/>
      <rect x="8" y="15" width="1" height="1"/>
      <rect x="12" y="11" width="1" height="1"/>
      <rect x="16" y="9" width="1" height="1"/>
      <rect x="20" y="7" width="1" height="1"/>
      <rect x="4" y="15" width="1" height="1"/>
      <rect x="22" y="6" width="1" height="1"/>
      <rect x="18" y="8" width="1" height="1"/>
      <rect x="14" y="10" width="1" height="1"/>
      <rect x="10" y="12" width="1" height="1"/>
      <rect x="24" y="5" width="1" height="1"/>
      <rect x="8" y="13" width="1" height="1"/>
      <rect x="6" y="14" width="1" height="1"/>
      <rect x="10" y="10" width="1" height="1"/>
      <rect x="14" y="8" width="1" height="1"/>
      <rect x="18" y="6" width="1" height="1"/>
      <rect x="20" y="21" width="1" height="1"/>
      <rect x="20" y="5" width="1" height="1"/>
      <rect x="16" y="7" width="1" height="1"/>
      <rect x="12" y="9" width="1" height="1"/>
      <rect x="8" y="11" width="1" height="1"/>
      <rect x="22" y="4" width="1" height="1"/>
      <rect x="6" y="12" width="1" height="1"/>
      <rect x="4" y="13" width="1" height="1"/>
      <rect x="14" y="16" width="1" height="1"/>
      <rect x="18" y="14" width="1" height="1"/>
      <rect x="22" y="12" width="1" height="1"/>
      <rect x="6" y="20" width="1" height="1"/>
      <rect x="24" y="11" width="1" height="1"/>
      <rect x="20" y="13" width="1" height="1"/>
      <rect x="16" y="15" width="1" height="1"/>
      <rect x="12" y="17" width="1" height="1"/>
      <rect x="26" y="10" width="1" height="1"/>
      <rect x="10" y="18" width="1" height="1"/>
      <rect x="28" y="9" width="1" height="1"/>
      <rect x="8" y="19" width="1" height="1"/>
      <rect x="10" y="8" width="1" height="1"/>
      <rect x="14" y="6" width="1" height="1"/>
      <rect x="18" y="4" width="1" height="1"/>
      <rect x="2" y="12" width="1" height="1"/>
      <rect x="20" y="3" width="1" height="1"/>
      <rect x="16" y="5" width="1" height="1"/>
      <rect x="12" y="7" width="1" height="1"/>
      <rect x="8" y="9" width="1" height="1"/>
      <rect x="6" y="10" width="1" height="1"/>
      <rect x="4" y="11" width="1" height="1"/>
      <polygon points="10 7 11 7 11 6 11 5 9 5 9 6 10 6 10 7"/>
      <polygon points="14 5 15 5 15 4 15 3 13 3 13 4 14 4 14 5"/>
      <polygon points="2 11 3 11 3 10 3 9 1 9 1 10 2 10 2 11"/>
      <polygon points="12 6 13 6 13 5 13 4 11 4 11 5 12 5 12 6"/>
      <polygon points="8 8 9 8 9 7 9 6 7 6 7 7 8 7 8 8"/>
      <polygon points="6 9 7 9 7 8 7 7 5 7 5 8 6 8 6 9"/>
      <polygon points="4 10 5 10 5 9 5 8 3 8 3 9 4 9 4 10"/>
      <rect x="4" y="19" width="1" height="1"/>
      <rect x="4" y="17" width="1" height="1"/>
      <rect x="12" y="23" width="1" height="1"/>
      <rect x="12" y="21" width="1" height="1"/>
      <rect x="14" y="26" width="1" height="1"/>
      <rect x="14" y="24" width="1" height="1"/>
      <rect x="2" y="16" width="1" height="1"/>
      <rect x="10" y="22" width="1" height="1"/>
      <rect x="17.9" y="22" width="1" height="1"/>
      <polygon points="17 25 16 25 16 26 16 27 18 27 18 26 17 26 17 25"/>
      <rect x="16" y="21" width="1" height="1"/>
    </g>
  </g>
  <g id="Layer_3">
    <path class="st0" d="M31,8v-1h-1v-1h-2v-1h-2v-1h-2v-1h-2v-1h-2v-1h-1v2h-1v-1h-1v2h-1v-1h-1v2h-1v-1h-1v2h-1v-1h-1v2h-1v-1h-1v2h-1v-1h-1v2h-1v-1h-1v2h-1v-1h-1v2h-1v-1h-1v3h1v-1h1v1h-1v1h1v1H1v2h1v-1h1v1h-1v1h1v1h-1v1h1v3h2v1h2v1h2v1h2v1h2v1h2v-1h-1v-1h1v1h1v-2h1v1h1v-2h2v-1h2v-1h2v-1h1v-1h-1v-1h1v1h2v-1h-1v-1h1v1h1v-2h1v1h2v-1h-1v-1h1v-1h-1v-1h1v-1h-1v-1h1v-1h-1v-1h1v-1h-1v-1h1ZM5,22h-1v-1h1v1ZM5,20h-1v-1h1v1ZM5,18h-1v-1h1v1ZM5,16h-1v-1h1v1ZM5,14h-1v-1h1v1ZM5,12h-1v-1h1v1ZM7,23h-1v-1h1v1ZM7,21h-1v-1h1v1ZM7,19h-1v-1h1v1ZM7,17h-1v-1h1v1ZM7,15h-1v-1h1v1ZM7,13h-1v-1h1v1ZM7,11h-1v-1h1v1ZM9,24h-1v-1h1v1ZM9,22h-1v-1h1v1ZM9,20h-1v-1h1v1ZM9,18h-1v-1h1v1ZM9,16h-1v-1h1v1ZM9,14h-1v-1h1v1ZM9,12h-1v-1h1v1ZM9,10h-1v-1h1v1ZM11,25h-1v-1h1v1ZM11,23h-1v-1h1v1ZM11,21h-1v-1h1v1ZM11,19h-1v-1h1v1ZM11,17h-1v-1h1v1ZM11,15h-1v-1h1v1ZM11,13h-1v-1h1v1ZM11,11h-1v-1h1v1ZM11,9h-1v-1h1v1ZM13,26h-1v-1h1v1ZM13,24h-1v-1h1v1ZM13,22h-1v-1h1v1ZM13,20h-1v-1h1v1ZM13,18h-1v-1h1v1ZM13,16h-1v-1h1v1ZM13,14h-1v-1h1v1ZM13,12h-1v-1h1v1ZM13,10h-1v-1h1v1ZM13,8h-1v-1h1v1ZM15,25h-1v-1h1v1ZM15,23h-1v-1h1v1ZM15,21h-1v-1h1v1ZM15,19h-1v-1h1v1ZM15,17h-1v-1h1v1ZM15,15h-1v-1h1v1ZM15,13h-1v-1h1v1ZM15,11h-1v-1h1v1ZM15,9h-1v-1h1v1ZM15,7h-1v-1h1v1ZM17,24h-1v-1h1v1ZM17,22h-1v-1h1v1ZM17,20h-1v-1h1v1ZM17,18h-1v-1h1v1ZM17,16h-1v-1h1v1ZM17,14h-1v-1h1v1ZM17,12h-1v-1h1v1ZM17,10h-1v-1h1v1ZM17,8h-1v-1h1v1ZM17,6h-1v-1h1v1ZM19,23h-1v-1h1v1ZM19,21h-1v-1h1v1ZM19,19h-1v-1h1v1ZM19,17h-1v-1h1v1ZM19,15h-1v-1h1v1ZM19,13h-1v-1h1v1ZM19,11h-1v-1h1v1ZM19,9h-1v-1h1v1ZM19,7h-1v-1h1v1ZM19,5h-1v-1h1v1ZM21,22h-1v-1h1v1ZM21,20h-1v-1h1v1ZM21,18h-1v-1h1v1ZM21,16h-1v-1h1v1ZM21,14h-1v-1h1v1ZM21,12h-1v-1h1v1ZM21,10h-1v-1h1v1ZM21,8h-1v-1h1v1ZM21,6h-1v-1h1v1ZM21,4h-1v-1h1v1ZM23,21h-1v-1h1v1ZM23,19h-1v-1h1v1ZM23,17h-1v-1h1v1ZM23,15h-1v-1h1v1ZM23,13h-1v-1h1v1ZM23,11h-1v-1h1v1ZM23,9h-1v-1h1v1ZM23,7h-1v-1h1v1ZM23,5h-1v-1h1v1ZM25,18h-1v-1h1v1ZM25,16h-1v-1h1v1ZM25,14h-1v-1h1v1ZM25,12h-1v-1h1v1ZM25,10h-1v-1h1v1ZM25,8h-1v-1h1v1ZM25,6h-1v-1h1v1ZM27,17h-1v-1h1v1ZM27,15h-1v-1h1v1ZM27,13h-1v-1h1v1ZM27,11h-1v-1h1v1ZM27,9h-1v-1h1v1ZM27,7h-1v-1h1v1ZM29,16h-1v-1h1v1ZM29,14h-1v-1h1v1ZM29,12h-1v-1h1v1ZM29,10h-1v-1h1v1ZM29,8h-1v-1h1v1Z"/>
  </g>
</svg>